HIERARCHY
ROOT Hips
{
    OFFSET 0.000000 0.000000 0.000000
    CHANNELS 6 Xposition Yposition Zposition Zrotation Xrotation Yrotation
    JOINT Spine
    {
        OFFSET 0.000001 7.292995 0.000000
        CHANNELS 3 Zrotation Xrotation Yrotation
        JOINT Spine1
        {
            OFFSET -0.000000 20.255388 0.000001
            CHANNELS 3 Zrotation Xrotation Yrotation
            JOINT Neck
            {
                OFFSET 0.000001 20.786594 0.000000
                CHANNELS 3 Zrotation Xrotation Yrotation
                JOINT Head
                {
                    OFFSET 0.000003 12.530788 1.776080
                    CHANNELS 3 Zrotation Xrotation Yrotation
                    End Site
                    {
                        OFFSET 0.000000 17.760757 0.000000
                    }
                }
            }
            JOINT LeftShoulder
            {
                OFFSET 3.550532 15.465697 -0.908801
                CHANNELS 3 Zrotation Xrotation Yrotation
                JOINT LeftArm
                {
                    OFFSET 12.513301 -0.000005 0.000001
                    CHANNELS 3 Zrotation Xrotation Yrotation
                    JOINT LeftForeArm
                    {
                        OFFSET 24.225992 0.000005 0.000000
                        CHANNELS 3 Zrotation Xrotation Yrotation
                        JOINT LeftHand
                        {
                            OFFSET 20.711395 -0.000004 0.000000
                            CHANNELS 3 Zrotation Xrotation Yrotation
                            JOINT LeftHandThumb1
                            {
                                OFFSET 2.121964 -2.411326 3.375861
                                CHANNELS 3 Zrotation Xrotation Yrotation
                                JOINT LeftHandThumb2
                                {
                                    OFFSET 2.803212 -0.000001 -0.000002
                                    CHANNELS 3 Zrotation Xrotation Yrotation
                                    JOINT LeftHandThumb3
                                    {
                                        OFFSET 2.395929 0.000000 0.000000
                                        CHANNELS 3 Zrotation Xrotation Yrotation
                                        End Site
                                        {
                                            OFFSET 2.127676 0.000000 0.000000
                                        }
                                    }
                                }
                            }
                            JOINT LeftHandIndex1
                            {
                                OFFSET 8.680776 0.000004 3.375861
                                CHANNELS 3 Zrotation Xrotation Yrotation
                                JOINT LeftHandIndex2
                                {
                                    OFFSET 4.218180 -0.000002 0.000001
                                    CHANNELS 3 Zrotation Xrotation Yrotation
                                    JOINT LeftHandIndex3
                                    {
                                        OFFSET 2.109090 0.000001 -0.000000
                                        CHANNELS 3 Zrotation Xrotation Yrotation
                                        End Site
                                        {
                                            OFFSET 1.872952 0.000000 0.000000
                                        }
                                    }
                                }
                            }
                            JOINT LeftHandMiddle1
                            {
                                OFFSET 8.680775 0.000001 1.118862
                                CHANNELS 3 Zrotation Xrotation Yrotation
                                JOINT LeftHandMiddle2
                                {
                                    OFFSET 4.640000 0.000002 -0.000000
                                    CHANNELS 3 Zrotation Xrotation Yrotation
                                    JOINT LeftHandMiddle3
                                    {
                                        OFFSET 2.530906 0.000005 0.000000
                                        CHANNELS 3 Zrotation Xrotation Yrotation
                                        End Site
                                        {
                                            OFFSET 2.247544 0.000000 0.000000
                                        }
                                    }
                                }
                            }
                            JOINT LeftHandRing1
                            {
                                OFFSET 8.198514 -0.000004 -1.118859
                                CHANNELS 3 Zrotation Xrotation Yrotation
                                JOINT LeftHandRing2
                                {
                                    OFFSET 4.218182 -0.000003 -0.000001
                                    CHANNELS 3 Zrotation Xrotation Yrotation
                                    JOINT LeftHandRing3
                                    {
                                        OFFSET 2.109086 0.000004 0.000001
                                        CHANNELS 3 Zrotation Xrotation Yrotation
                                        End Site
                                        {
                                            OFFSET 1.872952 0.000000 0.000000
                                        }
                                    }
                                }
                            }
                            JOINT LeftHandPinky1
                            {
                                OFFSET 7.716242 0.000005 -3.375859
                                CHANNELS 3 Zrotation Xrotation Yrotation
                                JOINT LeftHandPinky2
                                {
                                    OFFSET 3.374535 0.000004 0.000002
                                    CHANNELS 3 Zrotation Xrotation Yrotation
                                    JOINT LeftHandPinky3
                                    {
                                        OFFSET 1.687275 0.000002 -0.000001
                                        CHANNELS 3 Zrotation Xrotation Yrotation
                                        End Site
                                        {
                                            OFFSET 1.498360 0.000000 0.000000
                                        }
                                    }
                                }
                            }
                        }
                    }
                }
            }
            JOINT RightShoulder
            {
                OFFSET -3.550531 15.465694 -0.908802
                CHANNELS 3 Zrotation Xrotation Yrotation
                JOINT RightArm
                {
                    OFFSET -12.513298 -0.000004 0.000001
                    CHANNELS 3 Zrotation Xrotation Yrotation
                    JOINT RightForeArm
                    {
                        OFFSET -24.225996 -0.000002 -0.000000
                        CHANNELS 3 Zrotation Xrotation Yrotation
                        JOINT RightHand
                        {
                            OFFSET -20.711401 0.000005 0.000001
                            CHANNELS 3 Zrotation Xrotation Yrotation
                            JOINT RightHandThumb1
                            {
                                OFFSET -2.121970 -2.411334 3.375861
                                CHANNELS 3 Zrotation Xrotation Yrotation
                                JOINT RightHandThumb2
                                {
                                    OFFSET -2.803210 0.000003 -0.000004
                                    CHANNELS 3 Zrotation Xrotation Yrotation
                                    JOINT RightHandThumb3
                                    {
                                        OFFSET -2.395930 -0.000001 0.000002
                                        CHANNELS 3 Zrotation Xrotation Yrotation
                                        End Site
                                        {
                                            OFFSET -2.127676 0.000000 0.000000
                                        }
                                    }
                                }
                            }
                            JOINT RightHandIndex1
                            {
                                OFFSET -8.680779 0.000001 3.375860
                                CHANNELS 3 Zrotation Xrotation Yrotation
                                JOINT RightHandIndex2
                                {
                                    OFFSET -4.218180 0.000000 -0.000000
                                    CHANNELS 3 Zrotation Xrotation Yrotation
                                    JOINT RightHandIndex3
                                    {
                                        OFFSET -2.109090 0.000001 -0.000000
                                        CHANNELS 3 Zrotation Xrotation Yrotation
                                        End Site
                                        {
                                            OFFSET -1.872952 0.000000 0.000000
                                        }
                                    }
                                }
                            }
                            JOINT RightHandMiddle1
                            {
                                OFFSET -8.680780 0.000001 1.118860
                                CHANNELS 3 Zrotation Xrotation Yrotation
                                JOINT RightHandMiddle2
                                {
                                    OFFSET -4.640000 -0.000002 0.000001
                                    CHANNELS 3 Zrotation Xrotation Yrotation
                                    JOINT RightHandMiddle3
                                    {
                                        OFFSET -2.530910 0.000001 -0.000000
                                        CHANNELS 3 Zrotation Xrotation Yrotation
                                        End Site
                                        {
                                            OFFSET -2.247544 0.000000 0.000000
                                        }
                                    }
                                }
                            }
                            JOINT RightHandRing1
                            {
                                OFFSET -8.198519 0.000005 -1.118860
                                CHANNELS 3 Zrotation Xrotation Yrotation
                                JOINT RightHandRing2
                                {
                                    OFFSET -4.218180 -0.000006 0.000000
                                    CHANNELS 3 Zrotation Xrotation Yrotation
                                    JOINT RightHandRing3
                                    {
                                        OFFSET -2.109090 0.000001 -0.000000
                                        CHANNELS 3 Zrotation Xrotation Yrotation
                                        End Site
                                        {
                                            OFFSET -1.872952 0.000000 0.000000
                                        }
                                    }
                                }
                            }
                            JOINT RightHandPinky1
                            {
                                OFFSET -7.716248 -0.000002 -3.375859
                                CHANNELS 3 Zrotation Xrotation Yrotation
                                JOINT RightHandPinky2
                                {
                                    OFFSET -3.374540 0.000000 0.000000
                                    CHANNELS 3 Zrotation Xrotation Yrotation
                                    JOINT RightHandPinky3
                                    {
                                        OFFSET -1.687270 0.000004 0.000001
                                        CHANNELS 3 Zrotation Xrotation Yrotation
                                        End Site
                                        {
                                            OFFSET -1.498360 0.000000 0.000000
                                        }
                                    }
                                }
                            }
                        }
                    }
                }
            }
        }
    }
    JOINT LeftUpLeg
    {
        OFFSET 8.880376 -0.000000 -0.000000
        CHANNELS 3 Zrotation Xrotation Yrotation
        JOINT LeftLeg
        {
            OFFSET -0.000001 -40.387405 -0.000001
            CHANNELS 3 Zrotation Xrotation Yrotation
            JOINT LeftFoot
            {
                OFFSET -0.000001 -36.911297 -0.000001
                CHANNELS 3 Zrotation Xrotation Yrotation
                JOINT LeftToeBase
                {
                    OFFSET -0.000002 -5.772240 13.320604
                    CHANNELS 3 Zrotation Xrotation Yrotation
                    End Site
                    {
                        OFFSET 0.000000 0.000000 3.552151
                    }
                }
            }
        }
    }
    JOINT RightUpLeg
    {
        OFFSET -8.880376 0.000000 0.000000
        CHANNELS 3 Zrotation Xrotation Yrotation
        JOINT RightLeg
        {
            OFFSET -0.000001 -40.387390 0.000000
            CHANNELS 3 Zrotation Xrotation Yrotation
            JOINT RightFoot
            {
                OFFSET 0.000002 -36.911297 -0.000001
                CHANNELS 3 Zrotation Xrotation Yrotation
                JOINT RightToeBase
                {
                    OFFSET 0.000001 -5.772238 13.320600
                    CHANNELS 3 Zrotation Xrotation Yrotation
                    End Site
                    {
                        OFFSET 0.000000 0.000000 3.552151
                    }
                }
            }
        }
    }
}
MOTION
Frames: 4
Frame Time: 0.013889
59.617348    83.756638    -10.733031    -1.543290    9.419533    3.652761    -0.016113    -24.117374    -0.039434    0.498858    15.248411    -0.165929    -2.265179    -6.923992    -1.939461    1.144950    6.786872    -1.801226    -2.978466    5.896421    0.282762    -63.436462    38.684067    -11.994865    -6.543447    -20.086596    -18.468534    -12.382370    5.218715    11.475084    30.914660    34.693359    -41.954647    -12.288007    -0.163840    23.316927    -0.000000    0.000000    -0.000000    -0.920266    17.997789    -1.803306    -0.875232    -0.000003    -0.000003    -0.875230    0.000000    0.000000    0.164987    8.999969    -1.069646    0.162967    0.000000    0.000002    0.162966    0.000000    0.000003    0.690549    -8.999363    -2.167855    0.682054    -0.000000    -0.000002    0.682061    -0.000001    0.000002    1.262947    -17.995861    -4.161506    1.201141    -0.000000    -0.000001    1.201151    0.000000    0.000001    6.592229    6.202231    2.148386    66.470314    32.848400    6.762682    6.829331    -25.139284    15.743783    0.095881    -5.312744    -12.855939    -38.086040    29.611780    42.721943    13.840386    -0.832735    -23.303421    -0.000000    0.000000    -0.000000    9.371284    17.774940    1.410172    8.920182    -0.000003    0.000000    8.920183    0.000002    0.000002    15.331685    8.684676    -0.223377    15.151647    -0.000002    -0.000001    15.151638    0.000003    0.000001    18.479704    -8.542959    -0.396155    18.267378    0.000003    0.000004    18.267393    -0.000000    -0.000000    22.377270    -16.722975    0.279479    21.383106    0.000004    0.000007    21.383121    -0.000001    0.000000    -0.797972    -6.482780    7.588436    0.000000    4.304556    -0.000000    -1.177050    -4.623544    -9.201225    0.000001    3.375335    -0.000000    1.858461    -6.149214    -7.453923    -0.000000    4.078666    0.000001    6.025796    -5.987718    0.682445    0.000001    3.426482    0.000000    
59.613945    83.756439    -10.701095    -1.543864    9.394182    3.679764    -0.016106    -24.113480    -0.039422    0.489286    15.253645    -0.163445    -2.315916    -6.952248    -1.902077    1.110016    6.776273    -1.752322    -3.035258    5.897593    0.281086    -63.399628    38.730808    -12.033390    -6.538386    -20.081001    -18.459698    -12.089139    5.302075    11.427691    30.738699    34.819294    -41.927578    -12.390840    -0.208156    23.316597    -0.000000    0.000000    -0.000000    -1.115655    17.996761    -1.733686    -1.061060    -0.000000    0.000002    -1.061066    -0.000003    -0.000002    0.050841    9.000000    -1.047164    0.050222    0.000002    -0.000000    0.050225    0.000002    0.000005    0.613406    -8.999496    -2.120163    0.605871    -0.000003    0.000003    0.605868    0.000001    -0.000002    1.221268    -17.996130    -4.054866    1.161498    0.000000    -0.000002    1.161511    0.000001    -0.000000    6.598560    6.209838    2.152242    66.495537    32.790947    6.751522    6.798426    -25.156042    15.666128    -0.152106    -5.304480    -12.677773    -38.084423    29.629662    42.653931    13.844007    -0.834311    -23.303381    -0.000000    0.000000    -0.000000    9.478513    17.769762    1.440686    9.022424    0.000004    -0.000000    9.022410    -0.000001    -0.000002    15.473983    8.678826    -0.213234    15.292454    0.000001    0.000001    15.292439    -0.000001    0.000000    18.641375    -8.534985    -0.387348    18.427450    -0.000001    0.000001    18.427469    0.000000    -0.000000    22.563219    -16.701792    0.302556    21.562464    -0.000002    0.000001    21.562464    0.000000    -0.000000    -0.791878    -6.460697    7.605388    0.000000    4.349754    -0.000000    -1.170760    -4.640116    -9.232306    0.000001    3.374827    -0.000001    1.856537    -6.109180    -7.507004    -0.000000    4.100867    0.000001    6.042325    -6.006934    0.708502    0.000001    3.434115    -0.000001    
59.609367    83.754959    -10.675753    -1.544391    9.370158    3.704261    -0.015508    -24.110384    -0.037965    0.483322    15.259700    -0.160642    -2.343660    -6.965997    -1.871541    1.090257    6.773654    -1.715505    -3.075227    5.905912    0.274711    -63.379124    38.802361    -12.073926    -6.541081    -20.083559    -18.464735    -11.691072    5.431152    11.412219    30.630981    34.897808    -41.881916    -12.453830    -0.235296    23.316353    -0.000000    0.000000    -0.000000    -1.277774    17.995766    -1.634971    -1.215250    0.000003    0.000003    -1.215250    -0.000002    -0.000000    -0.023576    9.000005    -1.011204    -0.023297    0.000002    0.000000    -0.023293    -0.000002    -0.000003    0.579825    -8.999551    -2.099887    0.572695    -0.000001    0.000000    0.572698    -0.000001    -0.000000    1.228802    -17.996084    -4.001482    1.168671    -0.000001    -0.000000    1.168688    0.000000    0.000001    6.602143    6.222889    2.158709    66.519539    32.771740    6.743744    6.777265    -25.130854    15.633279    -0.336089    -5.267046    -12.561109    -38.063915    29.654697    42.608810    13.854176    -0.838681    -23.303230    -0.000000    0.000000    -0.000000    9.575512    17.765034    1.417481    9.114925    0.000004    -0.000000    9.114916    -0.000004    -0.000001    15.534405    8.676331    -0.219147    15.352232    0.000002    -0.000003    15.352223    -0.000002    0.000002    18.685228    -8.532814    -0.373967    18.470875    -0.000003    -0.000001    18.470875    0.000000    -0.000000    22.591265    -16.698586    0.324364    21.589535    -0.000003    0.000001    21.589537    0.000000    -0.000000    -0.784522    -6.442530    7.630069    -0.000000    4.393696    0.000001    -1.167950    -4.664763    -9.273422    0.000000    3.362462    -0.000000    1.857800    -6.064290    -7.564687    -0.000000    4.095604    -0.000000    6.061770    -6.003908    0.742054    0.000000    3.447110    -0.000000    
59.605789    83.753113    -10.648388    -1.546834    9.344805    3.731644    -0.014345    -24.105017    -0.035124    0.480604    15.266988    -0.157485    -2.370993    -6.987698    -1.849463    1.072775    6.764083    -1.687045    -3.100651    5.926755    0.266672    -63.362595    38.895378    -12.104228    -6.552406    -20.109236    -18.473736    -11.262182    5.580531    11.287917    30.581005    34.935535    -41.832428    -12.485115    -0.248791    23.316219    -0.000000    0.000000    -0.000000    -1.453910    17.994535    -1.536193    -1.382778    0.000002    0.000002    -1.382773    -0.000003    0.000002    -0.101601    8.999990    -0.976819    -0.100363    0.000003    -0.000005    -0.100353    0.000003    0.000000    0.547586    -8.999600    -2.095267    0.540851    0.000002    -0.000001    0.540861    -0.000001    0.000001    1.242871    -17.995989    -3.977811    1.182075    0.000000    0.000002    1.182058    0.000000    -0.000002    6.609896    6.236298    2.162055    66.531425    32.760380    6.733679    6.765054    -25.097046    15.624896    -0.551820    -5.190679    -12.412434    -38.060364    29.661060    42.592678    13.855552    -0.839272    -23.303215    -0.000000    0.000000    -0.000000    9.635776    17.762068    1.415959    9.172369    -0.000000    -0.000002    9.172380    0.000001    -0.000003    15.529521    8.676531    -0.209985    15.347394    0.000001    0.000002    15.347411    0.000002    0.000001    18.648893    -8.534613    -0.345127    18.434912    -0.000005    -0.000007    18.434904    0.000001    0.000000    22.521694    -16.706537    0.372828    21.522406    -0.000007    -0.000007    21.522406    -0.000000    0.000000    -0.776283    -6.422715    7.658162    -0.000000    4.439806    0.000001    -1.163535    -4.695570    -9.319199    0.000000    3.351001    -0.000000    1.858600    -6.012837    -7.619833    -0.000000    4.084694    -0.000001    6.106790    -6.013620    0.777967    -0.000000    3.462381    0.000000    
